<svg xmlns="http://www.w3.org/2000/svg" width="18.09" height="17" viewBox="0 0 18.09 17">
  <metadata><?xpacket begin="﻿" id="W5M0MpCehiHzreSzNTczkc9d"?>
<x:xmpmeta xmlns:x="adobe:ns:meta/" x:xmptk="Adobe XMP Core 5.6-c138 79.159824, 2016/09/14-01:09:01        ">
   <rdf:RDF xmlns:rdf="http://www.w3.org/1999/02/22-rdf-syntax-ns#">
      <rdf:Description rdf:about=""/>
   </rdf:RDF>
</x:xmpmeta>
                                                                                                    
                                                                                                    
                                                                                                    
                                                                                                    
                                                                                                    
                                                                                                    
                                                                                                    
                                                                                                    
                                                                                                    
                                                                                                    
                                                                                                    
                                                                                                    
                                                                                                    
                                                                                                    
                                                                                                    
                                                                                                    
                                                                                                    
                                                                                                    
                                                                                                    
                                                                                                    
                           
<?xpacket end="w"?></metadata>
<defs>
    <style>
      .cls-1 {
        fill: #a1a8bd;
        fill-rule: evenodd;
      }
    </style>
  </defs>
  <path id="Shopping_Cart_Icon" data-name="Shopping Cart Icon" class="cls-1" d="M1033,40.052l-1,2.988c-0.37.837-.9,1.991-2,1.991h-9.64l0.12,1H1033l-1,1.991h-12.65l-0.64.075-1.19-10.033H1016a1,1,0,0,1-1-1,0.974,0.974,0,0,1,.9-1.058l3.39-.014,0.26,2.15a1.148,1.148,0,0,1,.45-0.083h12C1033.1,38.061,1033,38.952,1033,40.052Zm-12,8.962a1.992,1.992,0,1,1-2,1.992A2,2,0,0,1,1021,49.015Zm8,0a1.992,1.992,0,1,1-2,1.992A2,2,0,0,1,1029,49.015Z" transform="translate(-1015 -36)"/>
</svg>
