<svg xmlns="http://www.w3.org/2000/svg" width="13" height="13" viewBox="0 0 13 13">
  <metadata><?xpacket begin="﻿" id="W5M0MpCehiHzreSzNTczkc9d"?>
<x:xmpmeta xmlns:x="adobe:ns:meta/" x:xmptk="Adobe XMP Core 5.6-c138 79.159824, 2016/09/14-01:09:01        ">
   <rdf:RDF xmlns:rdf="http://www.w3.org/1999/02/22-rdf-syntax-ns#">
      <rdf:Description rdf:about=""/>
   </rdf:RDF>
</x:xmpmeta>
                                                                                                    
                                                                                                    
                                                                                                    
                                                                                                    
                                                                                                    
                                                                                                    
                                                                                                    
                                                                                                    
                                                                                                    
                                                                                                    
                                                                                                    
                                                                                                    
                                                                                                    
                                                                                                    
                                                                                                    
                                                                                                    
                                                                                                    
                                                                                                    
                                                                                                    
                                                                                                    
                           
<?xpacket end="w"?></metadata>
<defs>
    <style>
      .cls-1 {
        fill: #a1a8bd;
        fill-rule: evenodd;
      }
    </style>
  </defs>
  <path id="phone" class="cls-1" d="M315.722,37a0.683,0.683,0,0,0-.722.723A12.268,12.268,0,0,0,327.278,50,0.682,0.682,0,0,0,328,49.277V46.749a0.682,0.682,0,0,0-.722-0.722,7.869,7.869,0,0,1-2.6-.433,0.694,0.694,0,0,0-.722.216L322.367,47.4a11.238,11.238,0,0,1-4.767-4.767l1.589-1.589a0.732,0.732,0,0,0,.216-0.722,8.172,8.172,0,0,1-.433-2.6A0.683,0.683,0,0,0,318.25,37" transform="translate(-315 -37)"/>
</svg>
